                <svg width="19" height="18" viewBox="0 0 19 18" xmlns="http://www.w3.org/2000/svg">
                  <path fill="000000" fill-rule="evenodd" clip-rule="evenodd"
                    d="M0.146484 9.25C0.146484 9.52614 0.370342 9.75 0.646484 9.75L16.6465 9.75L16.6465 8.25L0.646485 8.25C0.370342 8.25 0.146484 8.47386 0.146484 8.75L0.146484 9.25Z" />
                  <path fill="000000" fill-rule="evenodd" clip-rule="evenodd"
                    d="M8.96959 16.1161C8.77433 16.3114 8.77433 16.628 8.9696 16.8232L9.32315 17.1768C9.51841 17.372 9.83499 17.372 10.0303 17.1768L17.8535 9.35356C18.0487 9.1583 18.0487 8.84171 17.8535 8.64645L10.0303 0.823228C9.83499 0.627965 9.51841 0.627965 9.32315 0.823228L8.9696 1.17678C8.77433 1.37204 8.77433 1.68863 8.9696 1.88389L16.0857 9L8.96959 16.1161Z" />
                </svg>