<svg width="40" height="41" viewBox="0 0 40 41" fill="none" xmlns="http://www.w3.org/2000/svg">
<path d="M0 4.35718C0 2.14804 1.79086 0.357178 4 0.357178H36C38.2091 0.357178 40 2.14804 40 4.35718V36.3572C40 38.5663 38.2091 40.3572 36 40.3572H4C1.79086 40.3572 0 38.5663 0 36.3572V4.35718Z" fill="#3396FF"/>
<path d="M7.03223 25.3572V15.4041H9.97168C10.8512 15.4041 11.6305 15.6 12.3096 15.9919C12.9932 16.3839 13.5218 16.9399 13.8955 17.6599C14.2692 18.38 14.4561 19.2048 14.4561 20.1345V20.6335C14.4561 21.5769 14.2669 22.4063 13.8887 23.1218C13.515 23.8373 12.9795 24.3888 12.2822 24.7761C11.5895 25.1635 10.7943 25.3572 9.89648 25.3572H7.03223ZM8.76172 16.7986V23.9763H9.88965C10.7965 23.9763 11.4915 23.6938 11.9746 23.1287C12.4622 22.559 12.7106 21.7432 12.7197 20.6814V20.1277C12.7197 19.0476 12.485 18.2227 12.0156 17.6531C11.5462 17.0834 10.8649 16.7986 9.97168 16.7986H8.76172ZM24.1221 20.6404C24.1221 21.6156 23.9535 22.4724 23.6162 23.2107C23.279 23.9444 22.7959 24.5095 22.167 24.906C21.5426 25.2979 20.8226 25.4939 20.0068 25.4939C19.2002 25.4939 18.4801 25.2979 17.8467 24.906C17.2178 24.5095 16.7301 23.9467 16.3838 23.2175C16.042 22.4884 15.8688 21.6475 15.8643 20.6951V20.1345C15.8643 19.1638 16.0352 18.307 16.377 17.5642C16.7233 16.8214 17.2087 16.254 17.833 15.8621C18.4619 15.4656 19.182 15.2673 19.9932 15.2673C20.8044 15.2673 21.5221 15.4633 22.1465 15.8552C22.7754 16.2426 23.2607 16.8031 23.6025 17.5369C23.9443 18.266 24.1175 19.116 24.1221 20.0867V20.6404ZM22.3926 20.1208C22.3926 19.018 22.1829 18.1726 21.7637 17.5847C21.349 16.9968 20.7588 16.7029 19.9932 16.7029C19.2458 16.7029 18.6602 16.9968 18.2363 17.5847C17.8171 18.1681 17.6029 18.9952 17.5938 20.0662V20.6404C17.5938 21.7341 17.8057 22.5795 18.2295 23.1765C18.6579 23.7735 19.2503 24.072 20.0068 24.072C20.7725 24.072 21.3604 23.7804 21.7705 23.197C22.1852 22.6137 22.3926 21.7615 22.3926 20.6404V20.1208ZM33.4395 22.1169C33.3392 23.1788 32.9473 24.0082 32.2637 24.6052C31.5801 25.1977 30.6709 25.4939 29.5361 25.4939C28.7432 25.4939 28.0436 25.307 27.4375 24.9333C26.8359 24.5551 26.3711 24.0196 26.043 23.3269C25.7148 22.6342 25.5439 21.8298 25.5303 20.9138V19.9841C25.5303 19.0453 25.6966 18.2182 26.0293 17.5027C26.362 16.7872 26.8382 16.2358 27.458 15.8484C28.0824 15.461 28.8024 15.2673 29.6182 15.2673C30.7165 15.2673 31.6006 15.5658 32.2705 16.1628C32.9404 16.7598 33.3301 17.6029 33.4395 18.6921H31.7168C31.6348 17.9766 31.4251 17.4617 31.0879 17.1472C30.7552 16.8282 30.2653 16.6687 29.6182 16.6687C28.8662 16.6687 28.2874 16.9444 27.8818 17.4958C27.4808 18.0427 27.2757 18.8471 27.2666 19.9089V20.7908C27.2666 21.8663 27.458 22.6866 27.8408 23.2517C28.2282 23.8168 28.7933 24.0994 29.5361 24.0994C30.2152 24.0994 30.7256 23.9467 31.0674 23.6414C31.4092 23.336 31.6257 22.8279 31.7168 22.1169H33.4395Z" fill="white"/>
</svg>
