<svg width="19" height="18" viewBox="0 0 19 18" fill="#009839" xmlns="http://www.w3.org/2000/svg">
<path fill-rule="evenodd" clip-rule="evenodd" d="M0.146484 9.25C0.146484 9.52614 0.370342 9.75 0.646484 9.75L16.6465 9.75L16.6465 8.25L0.646485 8.25C0.370342 8.25 0.146484 8.47386 0.146484 8.75L0.146484 9.25Z"/>
<path fill-rule="evenodd" clip-rule="evenodd" d="M8.96959 16.1161C8.77433 16.3113 8.77433 16.6279 8.9696 16.8232L9.32315 17.1767C9.51841 17.372 9.83499 17.372 10.0303 17.1767L17.8535 9.3535C18.0487 9.15823 18.0487 8.84165 17.8535 8.64639L10.0303 0.823167C9.83499 0.627904 9.51841 0.627904 9.32315 0.823167L8.9696 1.17672C8.77433 1.37198 8.77433 1.68856 8.9696 1.88383L16.0857 8.99994L8.96959 16.1161Z"/>
</svg>
